<mxfile host="app.diagrams.net" modified="2021-11-04T03:16:37.478Z" agent="5.0 (Macintosh; Intel Mac OS X 10_15_7) AppleWebKit/537.36 (KHTML, like Gecko) Chrome/93.0.4577.63 Safari/537.36" etag="E4PmbLFFliF6ic5hZ-K7" version="15.6.8" type="github">
  <diagram id="IX82MUmXwS7URNCQkP1D" name="Page-1">
    <mxGraphModel dx="946" dy="613" grid="1" gridSize="10" guides="1" tooltips="1" connect="1" arrows="1" fold="1" page="1" pageScale="1" pageWidth="827" pageHeight="1169" math="0" shadow="0">
      <root>
        <mxCell id="0" />
        <mxCell id="1" parent="0" />
        <mxCell id="Z6FGkFyXO3HySqv7gIEn-1" value="" style="rounded=0;whiteSpace=wrap;html=1;" parent="1" vertex="1">
          <mxGeometry x="130" y="130" width="30" height="490" as="geometry" />
        </mxCell>
        <mxCell id="Z6FGkFyXO3HySqv7gIEn-2" value="" style="rounded=0;whiteSpace=wrap;html=1;" parent="1" vertex="1">
          <mxGeometry x="420" y="130" width="30" height="490" as="geometry" />
        </mxCell>
        <mxCell id="Z6FGkFyXO3HySqv7gIEn-3" value="" style="endArrow=classic;html=1;exitX=0.983;exitY=0.161;exitDx=0;exitDy=0;exitPerimeter=0;entryX=0;entryY=0.25;entryDx=0;entryDy=0;dashed=1;" parent="1" source="Z6FGkFyXO3HySqv7gIEn-1" target="Z6FGkFyXO3HySqv7gIEn-2" edge="1">
          <mxGeometry width="50" height="50" relative="1" as="geometry">
            <mxPoint x="310" y="330" as="sourcePoint" />
            <mxPoint x="360" y="280" as="targetPoint" />
          </mxGeometry>
        </mxCell>
        <mxCell id="Z6FGkFyXO3HySqv7gIEn-4" value="client hello &lt;br&gt;alpn h2c http1.1" style="text;html=1;align=center;verticalAlign=middle;whiteSpace=wrap;rounded=0;fillColor=#f5f5f5;strokeColor=#666666;fontColor=#333333;" parent="1" vertex="1">
          <mxGeometry x="220" y="170" width="140" height="40" as="geometry" />
        </mxCell>
        <mxCell id="Z6FGkFyXO3HySqv7gIEn-5" value="" style="endArrow=classic;html=1;exitX=-0.1;exitY=0.363;exitDx=0;exitDy=0;exitPerimeter=0;entryX=1.039;entryY=0.455;entryDx=0;entryDy=0;entryPerimeter=0;dashed=1;" parent="1" source="Z6FGkFyXO3HySqv7gIEn-2" target="Z6FGkFyXO3HySqv7gIEn-1" edge="1">
          <mxGeometry width="50" height="50" relative="1" as="geometry">
            <mxPoint x="172.81999999999994" y="203.70000000000005" as="sourcePoint" />
            <mxPoint x="430" y="262.5000000000001" as="targetPoint" />
          </mxGeometry>
        </mxCell>
        <mxCell id="Z6FGkFyXO3HySqv7gIEn-6" value="server hello &lt;br&gt;alpn h2c" style="text;html=1;align=center;verticalAlign=middle;whiteSpace=wrap;rounded=0;fillColor=#f5f5f5;strokeColor=#666666;fontColor=#333333;" parent="1" vertex="1">
          <mxGeometry x="220" y="260" width="140" height="40" as="geometry" />
        </mxCell>
        <mxCell id="Z6FGkFyXO3HySqv7gIEn-7" value="" style="endArrow=classic;html=1;exitX=0.983;exitY=0.785;exitDx=0;exitDy=0;exitPerimeter=0;" parent="1" source="Z6FGkFyXO3HySqv7gIEn-1" edge="1">
          <mxGeometry width="50" height="50" relative="1" as="geometry">
            <mxPoint x="310" y="520" as="sourcePoint" />
            <mxPoint x="416" y="580" as="targetPoint" />
          </mxGeometry>
        </mxCell>
        <mxCell id="Z6FGkFyXO3HySqv7gIEn-8" value="h2c begin" style="text;html=1;align=center;verticalAlign=middle;whiteSpace=wrap;rounded=0;fillColor=#f5f5f5;strokeColor=#666666;fontColor=#333333;" parent="1" vertex="1">
          <mxGeometry x="220" y="470" width="140" height="40" as="geometry" />
        </mxCell>
        <mxCell id="Z6FGkFyXO3HySqv7gIEn-9" value="" style="endArrow=classic;html=1;exitX=-0.128;exitY=0.581;exitDx=0;exitDy=0;exitPerimeter=0;entryX=1.039;entryY=0.681;entryDx=0;entryDy=0;entryPerimeter=0;dashed=1;" parent="1" source="Z6FGkFyXO3HySqv7gIEn-2" target="Z6FGkFyXO3HySqv7gIEn-1" edge="1">
          <mxGeometry width="50" height="50" relative="1" as="geometry">
            <mxPoint x="427" y="317.87" as="sourcePoint" />
            <mxPoint x="170" y="450" as="targetPoint" />
          </mxGeometry>
        </mxCell>
        <mxCell id="Z6FGkFyXO3HySqv7gIEn-10" value="..........&lt;br&gt;&lt;br&gt;&lt;br&gt;&amp;nbsp;tls finsh" style="text;html=1;align=center;verticalAlign=middle;resizable=0;points=[];autosize=1;strokeColor=none;fillColor=none;" parent="1" vertex="1">
          <mxGeometry x="260" y="370" width="60" height="60" as="geometry" />
        </mxCell>
        <mxCell id="Z6FGkFyXO3HySqv7gIEn-11" value="Client" style="text;html=1;align=center;verticalAlign=middle;resizable=0;points=[];autosize=1;strokeColor=none;fillColor=none;" parent="1" vertex="1">
          <mxGeometry x="120" y="90" width="50" height="20" as="geometry" />
        </mxCell>
        <mxCell id="Z6FGkFyXO3HySqv7gIEn-12" value="Server" style="text;html=1;align=center;verticalAlign=middle;resizable=0;points=[];autosize=1;strokeColor=none;fillColor=none;" parent="1" vertex="1">
          <mxGeometry x="410" y="90" width="50" height="20" as="geometry" />
        </mxCell>
        <mxCell id="Z6FGkFyXO3HySqv7gIEn-13" value="ALPN协商过程" style="text;html=1;align=center;verticalAlign=middle;resizable=0;points=[];autosize=1;strokeColor=none;fillColor=none;" parent="1" vertex="1">
          <mxGeometry x="245" y="620" width="90" height="20" as="geometry" />
        </mxCell>
      </root>
    </mxGraphModel>
  </diagram>
</mxfile>
